<?xml version="1.0" standalone="no"?>
<!DOCTYPE svg PUBLIC "-//W3C//DTD SVG 20010904//EN"
 "http://www.w3.org/TR/2001/REC-SVG-20010904/DTD/svg10.dtd">
<svg version="1.0" xmlns="http://www.w3.org/2000/svg"
 width="1200.000000pt" height="1200.000000pt" viewBox="0 0 1200.000000 1200.000000"
 preserveAspectRatio="xMidYMid meet">
<metadata>
Created by potrace 1.14, written by Peter Selinger 2001-2017
</metadata>
<g transform="translate(0.000000,1200.000000) scale(0.100000,-0.100000)"
fill="#000000" stroke="none">
<path d="M1750 5996 l0 -3381 4253 0 4252 0 1 3381 1 3381 -4253 0 -4254 0 0
-3381z m8311 3189 c1 -5 2 -1444 3 -3197 l1 -3188 -4065 0 -4065 0 0 3195 0
3194 30 3 c90 9 8095 2 8096 -7z"/>
<path d="M3476 8063 c-2 -2 -44 -6 -92 -9 -204 -10 -241 -14 -276 -24 -20 -6
-39 -18 -43 -28 -4 -9 -9 -80 -11 -158 l-4 -140 25 -14 c16 -9 54 -13 108 -11
45 1 89 2 97 2 141 -1 188 -3 196 -9 5 -4 10 -34 10 -67 2 -104 7 -189 14
-215 4 -14 3 -38 -1 -55 -14 -53 -18 -86 -17 -148 0 -34 0 -87 1 -117 0 -30
-1 -160 -3 -288 -2 -167 1 -236 10 -246 17 -21 19 -107 4 -132 -10 -15 -12
-44 -8 -115 7 -105 8 -164 4 -259 -2 -36 0 -128 5 -205 8 -164 8 -160 1 -206
-5 -28 0 -43 19 -69 l24 -33 -22 -17 c-21 -17 -22 -25 -20 -167 2 -208 4 -220
39 -244 24 -15 42 -18 97 -14 38 2 75 9 83 15 7 7 48 14 90 16 43 2 82 8 88
14 10 10 12 88 6 180 -2 25 -1 56 2 70 3 14 2 49 -3 79 -5 31 -4 61 1 71 5 10
5 32 -2 56 -5 21 -10 50 -9 64 2 42 2 74 1 105 -1 17 1 60 4 97 4 43 1 83 -9
113 -9 33 -11 55 -4 72 9 26 10 45 6 173 -2 60 -5 74 -17 72 -13 -2 -13 0 1
10 14 12 15 77 13 597 -3 511 -5 585 -18 600 -20 22 -20 31 1 47 14 9 18 29
19 84 1 39 4 74 8 77 3 3 89 6 190 7 230 2 227 0 231 129 2 47 6 90 9 96 4 6
3 11 -3 11 -8 0 -8 13 1 59 4 21 -18 60 -40 70 -27 13 -572 14 -683 2 -30 -4
-69 -4 -87 0 -17 3 -33 4 -36 2z"/>
<path d="M5459 8049 c-46 -17 -52 -43 -51 -231 0 -95 1 -193 1 -218 1 -25 -1
-67 -5 -95 -3 -27 -5 -61 -5 -75 0 -14 0 -54 0 -90 0 -36 0 -72 0 -80 1 -8 0
-37 0 -65 -1 -27 -1 -90 -1 -140 1 -49 1 -110 1 -135 0 -25 0 -169 -1 -320 -2
-504 10 -1289 20 -1306 6 -11 6 -29 1 -48 -19 -66 0 -156 36 -170 9 -3 88 -6
176 -6 211 0 202 -9 201 190 0 47 -4 198 -8 335 -4 138 -7 381 -8 540 l-1 290
215 0 215 0 1 -643 c1 -470 5 -650 13 -671 7 -15 24 -34 37 -42 24 -12 42 -14
134 -12 19 0 70 0 112 -1 69 -1 79 2 97 23 11 13 23 38 25 55 3 17 3 198 1
401 -2 204 -4 388 -3 410 1 22 1 96 0 165 0 69 0 143 0 165 -1 22 1 69 2 105
1 36 -1 79 -4 97 -5 18 -3 36 3 42 7 7 6 22 -3 50 -8 26 -10 60 -6 103 4 34 9
76 11 93 1 16 -3 42 -11 57 -13 24 -13 31 0 50 12 19 15 110 15 566 1 598 4
576 -61 603 -20 8 -82 14 -162 15 -150 2 -177 -7 -194 -63 -7 -23 -10 -229 -9
-604 1 -314 -1 -573 -5 -575 -10 -6 -150 -7 -173 -1 -11 3 -65 6 -120 6 -55 1
-107 5 -114 10 -12 8 -16 64 -19 328 -2 175 -3 332 -3 348 3 262 2 451 -3 478
-12 64 -31 72 -185 74 -75 1 -148 -2 -162 -8z"/>
<path d="M8120 8042 c-14 -2 -30 -8 -37 -14 -8 -6 -18 -6 -30 0 -26 14 -130 5
-158 -14 -14 -9 -29 -32 -34 -53 -10 -39 -8 -166 4 -271 14 -125 17 -198 21
-650 2 -250 6 -520 8 -600 3 -80 5 -153 5 -162 0 -62 -1 -110 -1 -125 -4 -133
-2 -266 3 -295 3 -22 2 -38 -3 -38 -5 0 -6 -5 -2 -11 3 -6 6 -40 6 -76 0 -57
4 -69 25 -89 l24 -22 -23 -4 c-22 -3 -23 -7 -22 -83 0 -44 1 -98 2 -120 2 -22
1 -85 -1 -140 -6 -127 -1 -150 33 -172 26 -17 65 -18 497 -18 427 0 472 2 496
17 14 10 25 26 25 35 0 10 3 41 7 69 7 50 6 51 -20 58 -32 8 -28 30 6 31 16 0
23 5 21 15 -2 8 -5 35 -7 60 -4 63 -12 78 -51 89 -18 5 -156 9 -306 9 -150 0
-278 1 -285 1 -8 1 -12 28 -12 83 -1 92 -9 166 -21 173 -4 2 -3 32 2 66 10 75
7 200 -5 216 -19 26 -19 74 0 89 17 13 17 13 -4 14 -28 0 -30 26 -3 33 17 4
20 14 20 59 1 83 1 130 0 170 -2 62 10 73 77 72 32 -1 63 2 68 6 6 4 19 6 30
3 43 -9 264 -4 284 6 34 19 44 51 47 151 4 119 -9 176 -47 199 -25 15 -56 17
-248 15 -219 -2 -220 -2 -223 19 -2 12 -1 38 2 57 6 41 5 153 -4 295 -3 55 -8
141 -11 190 -4 86 -15 151 -29 173 -3 5 1 15 9 22 8 7 15 28 15 46 0 20 5 35
13 35 6 1 134 3 282 5 153 1 282 7 297 13 51 19 61 49 61 187 0 110 -3 129
-20 152 l-20 27 -164 3 c-90 1 -175 -1 -189 -6 -14 -5 -37 -5 -52 -1 -16 4
-28 3 -28 -2 0 -4 -6 -6 -13 -3 -16 6 -281 11 -317 6z"/>
<path d="M5665 4733 c-70 -37 -95 -81 -101 -178 -7 -120 -4 -521 5 -558 19
-81 81 -127 171 -128 88 -2 163 52 176 125 10 56 12 346 3 373 -7 19 -14 21
-88 19 -44 -1 -83 -5 -86 -8 -9 -8 -9 -84 -1 -97 4 -6 20 -11 35 -11 l27 0 -1
-117 c-1 -65 -5 -128 -9 -140 -15 -45 -90 -41 -107 5 -6 15 -9 137 -7 301 2
271 3 276 25 299 12 12 29 22 38 22 22 0 55 -37 55 -62 0 -13 3 -33 6 -46 6
-21 12 -23 58 -20 l51 3 3 40 c7 82 -39 160 -107 183 -47 16 -110 14 -146 -5z"/>
<path d="M6395 4742 c-45 -4 -89 -31 -116 -70 -20 -30 -24 -47 -24 -111 0 -63
5 -87 30 -141 16 -36 46 -87 66 -115 97 -133 144 -238 128 -283 -11 -29 -47
-43 -76 -29 -25 11 -32 27 -37 83 -2 20 -9 40 -16 44 -12 7 -100 3 -108 -5 -9
-8 -3 -87 9 -123 19 -57 37 -79 83 -102 48 -23 125 -26 168 -7 47 21 80 84 96
182 2 13 -33 116 -54 158 -14 26 -54 91 -90 145 -75 110 -94 151 -94 197 0 35
25 65 56 65 35 0 57 -25 63 -71 l6 -44 55 0 55 0 -2 63 c-1 51 -7 70 -28 97
-39 52 -96 75 -170 67z"/>
<path d="M7513 4739 c-53 -10 -97 -42 -120 -88 -16 -32 -18 -67 -18 -316 0
-307 4 -353 38 -402 26 -40 90 -73 138 -73 58 0 121 39 147 90 23 45 23 48 20
356 l-4 312 -27 41 c-45 67 -100 93 -174 80z m57 -129 c12 -12 20 -34 21 -57
10 -403 8 -538 -7 -561 -20 -30 -55 -26 -71 8 -8 18 -13 114 -15 314 -3 275
-2 288 16 302 26 18 32 18 56 -6z"/>
<path d="M8136 4737 c-24 -7 -51 -27 -70 -50 -28 -35 -31 -46 -31 -105 l0 -67
55 0 55 0 3 47 c3 52 28 80 63 71 31 -8 42 -41 36 -102 -8 -76 -32 -141 -112
-306 -96 -201 -126 -295 -106 -333 8 -15 27 -17 166 -16 86 1 163 5 171 8 9 4
14 21 14 55 0 58 0 58 -119 55 l-83 -2 5 35 c4 20 40 104 82 187 79 158 104
243 105 345 0 63 -36 138 -78 163 -38 23 -110 29 -156 15z"/>
<path d="M3055 4730 l-40 -5 -3 -52 -3 -53 60 0 61 0 0 -37 c2 -452 6 -686 11
-694 7 -11 30 -13 74 -5 17 2 33 5 36 5 4 1 5 165 2 366 l-5 365 56 0 c30 0
58 5 62 11 13 22 14 88 1 96 -13 9 -248 11 -312 3z"/>
<path d="M3700 4732 c-8 -3 -17 -9 -20 -13 -8 -12 -5 -828 3 -836 12 -11 107
-10 115 1 3 6 7 94 7 195 l0 184 43 -1 c23 0 48 -1 56 -1 13 -1 15 -31 13
-183 -1 -101 2 -189 6 -195 10 -16 103 -17 112 -2 10 15 11 822 1 837 -4 7
-29 12 -60 12 -43 0 -55 -4 -58 -17 -2 -10 -4 -89 -3 -175 l1 -158 -58 0 -58
0 0 169 c0 101 -4 172 -10 176 -14 8 -72 13 -90 7z"/>
<path d="M4398 4732 c-15 -3 -18 -14 -18 -65 -2 -439 1 -767 5 -779 7 -18 89
-18 107 0 8 8 11 126 11 422 -1 226 -4 414 -7 417 -7 7 -72 10 -98 5z"/>
<path d="M5128 4729 c-9 -6 -12 -72 -11 -261 0 -139 -2 -244 -4 -233 -3 11
-20 83 -38 160 -18 77 -41 174 -50 215 -27 126 -23 121 -107 118 l-73 -3 0
-385 c0 -212 2 -403 5 -424 5 -40 5 -40 52 -43 26 -2 50 2 54 8 3 6 6 52 5
102 -6 395 -6 487 1 487 4 0 8 -7 8 -15 0 -14 52 -235 106 -450 14 -55 33
-106 42 -112 9 -7 35 -13 58 -13 24 0 46 6 51 13 10 15 4 819 -6 830 -11 11
-78 15 -93 6z"/>
<path d="M8705 4730 c-39 -5 -40 -6 -43 -49 -2 -24 1 -48 7 -54 7 -7 47 -10
99 -8 l89 2 -29 -123 c-15 -68 -30 -134 -33 -148 -3 -14 -29 -122 -59 -240
-29 -118 -51 -218 -49 -222 2 -5 31 -8 63 -8 l59 0 10 38 c18 66 78 322 124
527 43 191 52 263 34 282 -9 9 -207 11 -272 3z"/>
</g>
</svg>
